<svg width="87" height="80" viewBox="0 0 87 80" fill="none" xmlns="http://www.w3.org/2000/svg">
<path d="M76.8858 52.9666C74.5796 57.9815 70.9726 62.4006 66.3801 65.8376C61.7875 69.2745 56.3493 71.6247 50.5408 72.6825C44.7324 73.7404 38.7305 73.4737 33.06 71.9059C27.3895 70.3381 22.223 67.5168 18.0122 63.6887C13.8014 59.8607 10.6745 55.1424 8.90481 49.9464C7.13516 44.7504 6.77667 39.2349 7.86068 33.882C8.94468 28.5292 11.4382 23.502 15.1232 19.24C18.8082 14.978 23.5725 11.611 28.9995 9.43323" stroke="#004995" stroke-width="2" stroke-linecap="round" stroke-linejoin="round"/>
<path d="M79.75 40C79.75 35.6226 78.8124 31.288 76.9906 27.2438C75.1689 23.1997 72.4987 19.525 69.1326 16.4297C65.7665 13.3344 61.7703 10.8791 57.3723 9.20397C52.9742 7.52882 48.2604 6.66663 43.5 6.66663V40H79.75Z" stroke="#004995" stroke-width="2" stroke-linecap="round" stroke-linejoin="round"/>
</svg>
